<svg xmlns="http://www.w3.org/2000/svg" viewBox="0 0 17.83 14.51"><title>twitter-icon</title><g id="09a71cf2-4d97-4012-bf3a-18e7feee2e46" data-name="Layer 2"><g id="871a828a-a920-47fa-b686-f08ce08e57a7" data-name="Layer 1"><path d="M5.91,14.51H5.24A10.18,10.18,0,0,1,.12,13L0,12.88a7.62,7.62,0,0,0,2.85-.24A7.23,7.23,0,0,0,5.4,11.35,3.65,3.65,0,0,1,2,8.81a3.69,3.69,0,0,0,.81.06,3.11,3.11,0,0,0,.8-.13A3.67,3.67,0,0,1,.7,5.11a3.43,3.43,0,0,0,.8.32,3.36,3.36,0,0,0,.85.13A3.67,3.67,0,0,1,1.22.68,10.49,10.49,0,0,0,8.77,4.51V4.43a3.63,3.63,0,0,1,0-1.54A3.56,3.56,0,0,1,10.11.76,3.56,3.56,0,0,1,13,.07a3.6,3.6,0,0,1,2,1.05.08.08,0,0,0,.08,0A7.23,7.23,0,0,0,17.18.36l.16-.09a3.69,3.69,0,0,1-1.6,2,7.2,7.2,0,0,0,2.09-.57.11.11,0,0,1,0,.05,7.17,7.17,0,0,1-1.75,1.81.08.08,0,0,0,0,.08A9.44,9.44,0,0,1,16,5a9.46,9.46,0,0,1-.29,1.66,10.59,10.59,0,0,1-1.15,2.81,10.17,10.17,0,0,1-2.74,3.1,9.91,9.91,0,0,1-3.3,1.6,9.68,9.68,0,0,1-1.3.27l-.92.09Z" style="fill:#999"/></g></g></svg>