<svg xmlns="http://www.w3.org/2000/svg" viewBox="0 0 14.48 16.27"><title>github-icon</title><g id="f11bb3ee-5b85-44a5-a2a2-7e7f0c00b2dc" data-name="Layer 2"><g id="a0facc1f-7402-40bf-bee9-c60ee2d71ec8" data-name="Layer 1"><path d="M5.16,16.27c0-.21,0-1.12,0-1.33V13.87c-.31,0-.6.08-.89.1A2.61,2.61,0,0,1,1.5,12.31,2.65,2.65,0,0,0,.36,10.89a1.22,1.22,0,0,1-.3-.26C0,10.5,0,10.39.15,10.35a1.5,1.5,0,0,1,.42,0,2,2,0,0,1,1.51,1,2.21,2.21,0,0,0,3,.93c.06,0,.15-.09.16-.14a2.51,2.51,0,0,1,.63-1.32c-.51-.11-1-.19-1.48-.32A4.13,4.13,0,0,1,1.56,8.35,6,6,0,0,1,1,6.08,4.27,4.27,0,0,1,2,2.92.37.37,0,0,0,2,2.67a3.83,3.83,0,0,1,0-2.15c.15-.55.2-.58.76-.47A6.71,6.71,0,0,1,4.92,1a.45.45,0,0,0,.34.07,9.7,9.7,0,0,1,5,0A.52.52,0,0,0,10.59,1c.49-.24,1-.54,1.46-.74A4.41,4.41,0,0,1,13.13,0a.27.27,0,0,1,.2.13,3.87,3.87,0,0,1,.15,2.4.44.44,0,0,0,.11.46,3.79,3.79,0,0,1,.75,1.5,6,6,0,0,1,0,2.38,4,4,0,0,1-2.19,3.2,6.74,6.74,0,0,1-1.23.46c-.41.11-.85.17-1.29.26a2.74,2.74,0,0,1,.67,2c0,.88,0,2.52,0,3.41Z" style="fill:#999"/></g></g></svg>