<svg xmlns="http://www.w3.org/2000/svg" viewBox="0 0 1331.61 302.84">
    <path d="M.3 332.5h1330" fill="none" stroke="#cbcbcb" stroke-miterlimit="10"/>
    <path d="M1294.06 332a48.6 48.6 0 0 0-27.87-8.77c-.84 0-.9.16-2.9.21v-.06c0-26.56-20.94-48.1-47.5-48.1s-47.5 21.53-47.5 48.1v.06c-2 0-1.86-.06-2.7-.06A48.27 48.27 0 0 0 1138 332zM21.59 332h1089.87a34.41 34.41 0 0 0-28.18-4.07 29.8 29.8 0 0 0-33.86-41.06 51 51 0 0 0-50.69-57.42 51 51 0 0 0-16.36 2.69c0-.89.06-1.79.06-2.69a70.93 70.93 0 1 0-141.86 0v.24a51.1 51.1 0 0 0-40.25 74.84 56.42 56.42 0 0 0-19.66 6.93 56.23 56.23 0 0 0-69.35 10.27 56.42 56.42 0 0 0-32.84-16.63 51.72 51.72 0 0 0 4.71-13.1 22.82 22.82 0 1 0-5.67-36.57 51.07 51.07 0 0 0-69.8-18.71 51 51 0 0 0-51.1 0 50.89 50.89 0 0 0-5.27-2.66 51.08 51.08 0 0 0-101.93.12 51.09 51.09 0 0 0-66 70.2 56.46 56.46 0 0 0-25.06 7.5 56.46 56.46 0 0 0-73.73 15.34 59 59 0 0 0-15.17-10.74 54.92 54.92 0 1 0-105.13-31.85 63.19 63.19 0 0 0-57.07 14.93 29.15 29.15 0 0 0-57.69 5.93c0 .77 0 1.52.09 2.27A58.22 58.22 0 0 0 21.59 332z" fill="#fff" opacity=".25"/>
</svg>
