<svg xmlns="http://www.w3.org/2000/svg" viewBox="0 0 16.92 16.92"><title>globe-icon</title><g id="abfc1bb7-3c79-450e-84ee-33b14b37543c" data-name="Layer 2"><g id="d5487dec-112b-48ae-85ff-903b5dd59560" data-name="Layer 1"><path d="M16.9,8.85s0,0,0-.07v0c0-.1,0-.19,0-.29a8.34,8.34,0,0,0-.72-3.39.21.21,0,0,0,0-.07A8.47,8.47,0,0,0,8.55,0H8.41A8.46,8.46,0,0,0,.75,5a.25.25,0,0,0,0,.07A8.5,8.5,0,0,0,0,8.46c0,.09,0,.17,0,.26s0,0,0,.06a.36.36,0,0,0,0,.11,8.42,8.42,0,0,0,1,3.63l0,.05a8.48,8.48,0,0,0,7.34,4.34h.14a8.45,8.45,0,0,0,7.29-4.34l0-.05A8.46,8.46,0,0,0,16.9,8.85ZM.75,9.14H4A15,15,0,0,0,4.43,12H1.6A7.77,7.77,0,0,1,.75,9.14Zm.54-3.6h3A15.58,15.58,0,0,0,4,8.42H.72A7.86,7.86,0,0,1,1.29,5.54Zm14.9,2.88H12.91a16.49,16.49,0,0,0-.26-2.88h3A7.47,7.47,0,0,1,16.19,8.42Zm-4,0H8.82V5.54h3.09A14.73,14.73,0,0,1,12.19,8.42ZM8.82,4.82V.75c1.25.24,2.34,1.84,2.92,4.07ZM8.1.76V4.82H5.19C5.77,2.6,6.86,1,8.1.76Zm0,4.78V8.42H4.75A14.73,14.73,0,0,1,5,5.54ZM4.76,9.14H8.1V12H5.18A14.16,14.16,0,0,1,4.76,9.14Zm3.34,3.6v3.42C7,15.94,6,14.62,5.38,12.74Zm.72,3.42V12.74h2.73C10.94,14.63,9.94,16,8.82,16.16Zm0-4.14V9.14h3.35A14.17,14.17,0,0,1,11.76,12Zm4.07-2.88h3.27A7.57,7.57,0,0,1,15.32,12H12.51A15,15,0,0,0,12.89,9.14Zm2.39-4.32H12.49A8.36,8.36,0,0,0,10.65,1,7.73,7.73,0,0,1,15.28,4.82ZM6.29,1A8.51,8.51,0,0,0,4.44,4.82H1.63A7.8,7.8,0,0,1,6.29,1ZM2,12.74h2.6a7.83,7.83,0,0,0,1.67,3.14A7.74,7.74,0,0,1,2,12.74Zm8.63,3.14a7.9,7.9,0,0,0,1.67-3.14H14.9A7.82,7.82,0,0,1,10.65,15.88Z" style="fill:#999"/></g></g></svg>